{"title":"Better Call Saul S02E02 Cobbler WEB-DL DD5 1 H264-Oosh[rartv]","uid":13674899,"size":660150454,"categoryP":"video","categoryS":"hd___tv_shows","magnet":"?xt=urn:btih:dc711deaa99c60a10cfdb424dbce02d5ba050153&amp;dn=Better+Call+Saul+S02E02+Cobbler+WEB-DL+DD5+1+H264-Oosh%5Brartv%5D&amp;tr=udp%3A%2F%2Ftracker.leechers-paradise.org%3A6969&amp;tr=udp%3A%2F%2Fzer0day.ch%3A1337&amp;tr=udp%3A%2F%2Fopen.demonii.com%3A1337&amp;tr=udp%3A%2F%2Ftracker.coppersurfer.tk%3A6969&amp;tr=udp%3A%2F%2Fexodus.desync.com%3A6969","seeders":0,"leechers":1,"uploader":"roflcopter2110","files":3,"time":1456385253,"description":"Better.Call.Saul.S02E02.Cobbler.WEB-DL.DD5.1.H264-Oosh[rartv]\r\n\r\nMediainfo :\r\n\r\nVideo\r\nID : 2\r\nFormat : AVC\r\nFormat/Info : Advanced Video Codec\r\nFormat profile :   \r\nFormat settings, CABAC : No\r\nFormat settings, ReFrames : 1 frame\r\nCodec ID : V_MPEG4/ISO/AVC\r\nDuration : 47mn 20s\r\nBit rate : 1 473 Kbps\r\nWidth : 640 pixels\r\nHeight : 478 pixels\r\nDisplay aspect ratio : 16:9\r\nFrame rate mode : Constant\r\nFrame rate : 23.976 (23976/1000) fps\r\nColor space : YUV\r\nChroma subsampling : 4:2:0\r\nBit depth : 8 bits\r\nScan type : Progressive\r\nBits/(Pixel*Frame) : 0.201\r\nStream size : 499 MiB (79%)\r\nLanguage : English\r\nDefault : Yes\r\nForced : No\r\nColor range : Limited\r\nColor primaries : BT.601 NTSC\r\nTransfer characteristics : BT.709\r\nMatrix coefficients : BT.601\r\n\r\nAudio\r\nID : 3\r\nFormat : AC-3\r\nFormat/Info : Audio Coding 3\r\nMode extension : CM (complete main)\r\nFormat settings, Endianness : Big\r\nCodec ID : A_AC3\r\nDuration : 47mn 20s\r\nBit rate mode : Constant\r\nBit rate : 384 Kbps\r\nChannel(s) : 6 channels\r\nChannel positions : Front: L C R, Side: L R, LFE\r\nSampling rate : 48.0 KHz\r\nFrame rate : 31.250 fps (1536 spf)\r\nCompression mode : Lossy\r\nStream size : 130 MiB (21%)\r\nLanguage : English\r\nDefault : Yes\r\nForced : No\r\n\r\nText\r\nID : 1\r\nFormat : UTF-8\r\nCodec ID : S_TEXT/UTF8\r\nCodec ID/Info : UTF-8 Plain Text\r\nDuration : 46mn 14s\r\nBit rate : 87 bps\r\nCount of elements : 712\r\nStream size : 29.5 KiB (0%)\r\nLanguage : English\r\nDefault : No\r\nForced : No","torrent":{"xt":"urn:btih:dc711deaa99c60a10cfdb424dbce02d5ba050153","amp;dn":"Better+Call+Saul+S02E02+Cobbler+WEB-DL+DD5+1+H264-Oosh%5Brartv%5D","amp;tr":["udp%3A%2F%2Ftracker.leechers-paradise.org%3A6969","udp%3A%2F%2Fzer0day.ch%3A1337","udp%3A%2F%2Fopen.demonii.com%3A1337","udp%3A%2F%2Ftracker.coppersurfer.tk%3A6969","udp%3A%2F%2Fexodus.desync.com%3A6969"],"infoHash":"dc711deaa99c60a10cfdb424dbce02d5ba050153","infoHashBuffer":{"type":"Buffer","data":[220,113,29,234,169,156,96,161,12,253,180,36,219,206,2,213,186,5,1,83]},"announce":[],"urlList":[]}}